<svg width="18" height="18" viewBox="0 0 18 18" fill="none" xmlns="http://www.w3.org/2000/svg">
<path d="M12.375 9C13.41 9 14.2425 8.16 14.2425 7.125C14.2425 6.09 13.41 5.25 12.375 5.25C11.34 5.25 10.5 6.09 10.5 7.125C10.5 8.16 11.34 9 12.375 9ZM6.75 8.25C7.995 8.25 8.9925 7.245 8.9925 6C8.9925 4.755 7.995 3.75 6.75 3.75C5.505 3.75 4.5 4.755 4.5 6C4.5 7.245 5.505 8.25 6.75 8.25ZM12.375 10.5C11.0025 10.5 8.25 11.19 8.25 12.5625V14.25H16.5V12.5625C16.5 11.19 13.7475 10.5 12.375 10.5ZM6.75 9.75C5.0025 9.75 1.5 10.6275 1.5 12.375V14.25H6.75V12.5625C6.75 11.925 6.9975 10.8075 8.5275 9.96C7.875 9.825 7.245 9.75 6.75 9.75Z" fill="#9CC042"/>
</svg>
