<svg width="18" height="18" viewBox="0 0 18 18" fill="none" xmlns="http://www.w3.org/2000/svg">
<path d="M14.025 9.29998C13.815 9.17998 13.5975 9.08248 13.38 8.99998C13.5975 8.91748 13.815 8.81998 14.025 8.69998C15.465 7.86748 16.2675 6.35998 16.275 4.80748C14.9325 4.03498 13.2225 3.97498 11.775 4.80748C11.565 4.92748 11.37 5.06998 11.19 5.21248C11.2275 4.97998 11.25 4.73998 11.25 4.49998C11.25 2.83498 10.3425 1.38748 8.99998 0.607483C7.65748 1.38748 6.74998 2.83498 6.74998 4.49998C6.74998 4.73998 6.77248 4.97998 6.80998 5.21248C6.62998 5.06248 6.43498 4.91998 6.22498 4.79998C4.78498 3.96748 3.07498 4.02748 1.72498 4.79998C1.72498 6.35248 2.52748 7.85998 3.97498 8.69248C4.18498 8.81248 4.40248 8.90998 4.61998 8.99248C4.40248 9.07498 4.18498 9.17248 3.97498 9.29248C2.53498 10.125 1.73248 11.6325 1.72498 13.185C3.06748 13.9575 4.77748 14.0175 6.22498 13.185C6.43498 13.065 6.62998 12.9225 6.80998 12.78C6.77248 13.02 6.74998 13.26 6.74998 13.5C6.74998 15.165 7.65748 16.6125 8.99998 17.3925C10.3425 16.6125 11.25 15.165 11.25 13.5C11.25 13.26 11.2275 13.02 11.19 12.7875C11.37 12.9375 11.565 13.0725 11.775 13.1925C13.215 14.025 14.925 13.965 16.275 13.1925C16.2675 11.64 15.465 10.1325 14.025 9.29998V9.29998ZM8.99998 12C7.34248 12 5.99998 10.6575 5.99998 8.99998C5.99998 7.34248 7.34248 5.99998 8.99998 5.99998C10.6575 5.99998 12 7.34248 12 8.99998C12 10.6575 10.6575 12 8.99998 12Z" fill="#9CC042"/>
</svg>
