<svg width="18" height="18" viewBox="0 0 18 18" fill="none" xmlns="http://www.w3.org/2000/svg">
<path d="M12.9075 6.75002L9.6225 1.83001C9.48 1.62001 9.24 1.51501 9 1.51501C8.76 1.51501 8.52 1.62001 8.3775 1.83751L5.0925 6.75002H1.5C1.0875 6.75002 0.75 7.08751 0.75 7.50002C0.75 7.56752 0.7575 7.63502 0.78 7.70252L2.685 14.655C2.8575 15.285 3.435 15.75 4.125 15.75H13.875C14.565 15.75 15.1425 15.285 15.3225 14.655L17.2275 7.70252L17.25 7.50002C17.25 7.08751 16.9125 6.75002 16.5 6.75002H12.9075ZM6.75 6.75002L9 3.45001L11.25 6.75002H6.75ZM9 12.75C8.175 12.75 7.5 12.075 7.5 11.25C7.5 10.425 8.175 9.75002 9 9.75002C9.825 9.75002 10.5 10.425 10.5 11.25C10.5 12.075 9.825 12.75 9 12.75Z" fill="#9CC042"/>
</svg>
